<?xml version="1.0" encoding="UTF-8"?><svg xmlns="http://www.w3.org/2000/svg" viewBox="0 0 55.36 19.77"><defs><style>.d{fill:#fff;}</style></defs><g id="a"/><g id="b"><g id="c"><g><path class="d" d="M9.15,4.67c-.89-.53-1.91-.79-3.06-.79-.88,0-1.68,.16-2.4,.46-.72,.31-1.35,.72-1.88,1.25V0H0V15.65H1.42l.23-1.65c.54,.6,1.19,1.06,1.94,1.4,.75,.33,1.58,.5,2.5,.5,1.15,0,2.17-.26,3.06-.77,.9-.53,1.6-1.25,2.1-2.17,.51-.92,.77-1.94,.77-3.06s-.26-2.18-.77-3.08c-.5-.9-1.2-1.61-2.1-2.15Zm.46,7.42c-.36,.64-.86,1.15-1.5,1.52-.64,.36-1.36,.54-2.17,.54s-1.55-.19-2.19-.56c-.64-.38-1.15-.88-1.52-1.52-.36-.65-.54-1.38-.54-2.17s.18-1.55,.54-2.19c.38-.64,.88-1.15,1.52-1.52,.64-.38,1.36-.56,2.19-.56s1.53,.19,2.17,.56c.64,.36,1.14,.87,1.5,1.52,.36,.64,.54,1.37,.54,2.19s-.18,1.54-.54,2.19Z"/><path class="d" d="M22.78,4.69c-.88-.54-1.9-.81-3.06-.81s-2.11,.27-3,.79c-.89,.53-1.59,1.25-2.1,2.17-.52,.91-.77,1.93-.77,3.06s.26,2.15,.77,3.06c.51,.92,1.21,1.64,2.1,2.17,.89,.52,1.89,.77,3,.77,1.25,0,2.35-.32,3.31-.98,.97-.67,1.7-1.59,2.19-2.79h-1.9c-.36,.62-.85,1.12-1.48,1.48-.62,.35-1.33,.52-2.12,.52-1.08,0-2-.32-2.75-.96-.74-.65-1.18-1.51-1.31-2.58h9.83c0-.11,0-.21,.02-.31,.01-.11,.02-.22,.02-.33,0-1.12-.24-2.15-.73-3.06-.47-.92-1.15-1.65-2.02-2.19Zm-7.08,4.21c.19-.98,.65-1.78,1.38-2.38,.72-.61,1.6-.92,2.65-.92s1.88,.3,2.6,.9c.73,.58,1.19,1.39,1.38,2.4H15.7Z"/><path class="d" d="M31.07,13.35c-.41-.42-.6-1.02-.6-1.81V5.77h3.6v-1.65h-3.6V1.69h-.29l-3.56,3.77v.31h2.04v5.83c0,1.27,.35,2.26,1.06,2.98,.71,.71,1.68,1.06,2.92,1.06h1.5v-1.69h-1.27c-.78,0-1.38-.2-1.79-.6Z"/><path class="d" d="M39.51,13.35c-.41-.42-.6-1.02-.6-1.81V5.77h3.6v-1.65h-3.6V1.69h-.29l-3.56,3.77v.31h2.04v5.83c0,1.27,.35,2.26,1.06,2.98,.71,.71,1.68,1.06,2.92,1.06h1.5v-1.69h-1.27c-.78,0-1.38-.2-1.79-.6Z"/><path class="d" d="M53.42,4.12l-3.85,8.73-4.08-8.73h-2l5.12,10.73-.4,.88c-.32,.64-.61,1.12-.88,1.46-.27,.34-.56,.59-.9,.73-.32,.14-.74,.21-1.25,.21h-.94v1.65h1.08c.73,0,1.36-.12,1.88-.35,.51-.22,.98-.6,1.4-1.15,.43-.53,.85-1.24,1.27-2.15l5.48-12h-1.94Z"/></g></g></g></svg>